<?xml version="1.0" encoding="utf-8"?>
<!-- Generator: Adobe Illustrator 26.0.1, SVG Export Plug-In . SVG Version: 6.00 Build 0)  -->
<svg version="1.1" id="Ebene_1" xmlns="http://www.w3.org/2000/svg" xmlns:xlink="http://www.w3.org/1999/xlink" x="0px" y="0px"
	 viewBox="0 0 297.9 70.1" style="enable-background:new 0 0 297.9 70.1;" xml:space="preserve">
<style type="text/css">
	.st0{fill:#2B65AF;}
	.st1{fill:#EF7914;}
</style>
<g>
	<g>
		<g>
			<g>
				<path class="st0" d="M100.3,31.4v1.2H89.5V21.5h10.7v1.2h-9.3v3.6h7.9v1.2h-7.9v3.8H100.3z"/>
				<path class="st0" d="M114.6,31.4v1.2h-9.9V21.5h1.3v9.9H114.6z"/>
				<path class="st0" d="M129.2,31.4v1.2h-10.8V21.5h10.7v1.2h-9.3v3.6h7.9v1.2h-7.9v3.8H129.2z"/>
				<path class="st0" d="M144,32.7l-5.3-6l-3.7,2.9v3.1h-1.3V21.5h1.3V28l8.5-6.5h1.9l-5.6,4.4l5.9,6.8H144z"/>
				<path class="st0" d="M159.7,22.7h-5.3v10H153v-10h-5.3v-1.2h11.9V22.7z"/>
				<path class="st0" d="M173.8,32.7l-3.7-4.3h-5.3v4.3h-1.4V21.5h7.5c2.5,0,4.3,1.2,4.3,3.4c0,1.9-1.4,3.2-3.5,3.4l3.8,4.3H173.8z
					 M170.9,27.1c1.8,0,3-0.7,3-2.2s-1.2-2.2-3-2.2h-6.1v4.4H170.9z"/>
				<path class="st0" d="M178.9,27.1c0-3.6,2.6-5.9,6.8-5.9c4.2,0,6.8,2.3,6.8,5.9S190,33,185.7,33C181.5,33,178.9,30.7,178.9,27.1z
					 M191.2,27.1c0-3-2.1-4.7-5.4-4.7c-3.3,0-5.4,1.7-5.4,4.7s2.1,4.7,5.4,4.7C189,31.7,191.2,30.1,191.2,27.1z"/>
			</g>
			<g>
				<path class="st0" d="M98.1,46.7h-5.6l-0.9,1.9h-4.1l5.7-11.2h4.2l5.7,11.2H99L98.1,46.7z M96.9,44.2l-1.6-3.4l-1.6,3.4H96.9z"/>
				<path class="st0" d="M118.9,41.5c0,2.7-2.1,4-5.3,4h-3.9v3.1h-3.9V37.4h7.8C116.7,37.4,118.9,38.8,118.9,41.5z M114.9,41.6
					c0-1-0.7-1.3-1.7-1.3h-3.6v2.7h3.6C114.2,42.9,114.9,42.6,114.9,41.6z"/>
				<path class="st0" d="M135.1,41.5c0,2.7-2.1,4-5.3,4h-3.9v3.1h-3.9V37.4h7.8C133,37.4,135.1,38.8,135.1,41.5z M131.2,41.6
					c0-1-0.7-1.3-1.7-1.3h-3.6v2.7h3.6C130.5,42.9,131.2,42.6,131.2,41.6z"/>
				<path class="st0" d="M150.5,45.8v2.8h-12.3V37.4h12.1v2.8H142v1.4h6.8v2.6H142v1.5H150.5z"/>
				<path class="st0" d="M167.5,37.4v11.2h-3.4l-6.5-6.7v6.7h-3.8V37.4h4.1l5.8,6.1v-6.1H167.5z"/>
				<path class="st0" d="M183.6,39.8l-7.1,6h7.4v2.8h-13v-2.3l7.1-6h-6.8v-2.8h12.4V39.8z"/>
				<path class="st0" d="M199.4,45.8v2.8h-12.3V37.4h12.1v2.8H191v1.4h6.8v2.6H191v1.5H199.4z"/>
				<path class="st0" d="M213.9,45.6v3h-11.1V37.4h3.9v8.2H213.9z"/>
				<path class="st0" d="M228,45.6v3h-11.1V37.4h3.9v8.2H228z"/>
				<path class="st0" d="M243.2,45.8v2.8H231V37.4h12.1v2.8h-8.3v1.4h6.8v2.6h-6.8v1.5H243.2z"/>
				<path class="st0" d="M255.8,48.6l-2.7-3.3h-2.6v3.3h-3.9V37.4h7.9c3,0,5.3,1.3,5.3,3.9c0,1.8-1.1,3-2.8,3.6l3.1,3.7H255.8z
					 M254.2,42.7c1,0,1.7-0.3,1.7-1.2s-0.7-1.2-1.7-1.2h-3.8v2.5H254.2z"/>
				<path class="st0" d="M277.6,46.7H272l-0.9,1.9H267l5.7-11.2h4.2l5.7,11.2h-4.1L277.6,46.7z M276.4,44.2l-1.6-3.4l-1.6,3.4H276.4
					z"/>
				<path class="st0" d="M297.9,46.6c-1.3,1.5-3.5,2.3-6.4,2.3c-4.7,0-7.6-2.1-7.6-6s2.9-6,7.6-6c2.8,0,4.8,0.9,6,2l-2.7,2
					c-1-0.8-1.9-1.1-3.2-1.1c-2.5,0-3.8,1.1-3.8,3c0,1.9,1.3,3.1,3.8,3.1c1.1,0,1.9-0.2,2.7-0.7v-0.9h-3.2V42h6.8V46.6z"/>
			</g>
		</g>
	</g>
	<path class="st1" d="M42.3,69.4c-4.5,0.9-9.1,1-13.5,0.2c-4.5-0.8-8.8-2.5-12.6-5C12.3,62.1,9,59,6.4,55.2
		c-2.6-3.7-4.5-7.9-5.5-12.4c-1-4.4-1.2-9-0.4-13.5s2.3-8.8,4.7-12.7c2.4-3.9,5.5-7.3,9.2-9.9c3.7-2.7,7.8-4.6,12.3-5.7
		c4.4-1.1,9-1.3,13.5-0.7C44.7,1,49,2.6,52.9,4.9c3.9,2.3,7.3,5.4,10.1,9c2.7,3.6,4.8,7.8,5.9,12.2c1.2,4.4,1.5,9,0.9,13.5
		c-0.6,4.5-2,8.9-4.3,12.8c-2.3,4-5.3,7.4-8.8,10.3l-5.5-11.8h11.1L42.5,8.4H27.6L7.9,50.8h15.4l11.9-25.4l6.3,13.5H31.3l23.5,25.2
		C51,66.6,46.8,68.4,42.3,69.4z"/>
</g>
</svg>
