<?xml version="1.0" encoding="utf-8"?>
<!-- Generator: Adobe Illustrator 26.0.1, SVG Export Plug-In . SVG Version: 6.00 Build 0)  -->
<svg version="1.1" id="Ebene_1" xmlns="http://www.w3.org/2000/svg" xmlns:xlink="http://www.w3.org/1999/xlink" x="0px" y="0px"
	 viewBox="0 0 800 800" style="enable-background:new 0 0 800 800;" xml:space="preserve">
<style type="text/css">
	.st0{fill:#F48D02;}
	.st1{fill:#E56700;}
	.st2{fill:#FFFFFF;}
</style>
<circle class="st0" cx="400.1" cy="400.2" r="399.8"/>
<path class="st1" d="M799.5,400c0-4.5-0.1-9-0.2-13.4L664.9,282L552,346l-54.9,11.5L390,275L142,431.8l408.7,338.6
	C696.6,710.8,799.5,567.4,799.5,400z"/>
<g id="Business_00000114793957527182947880000009209886777311280828_">
	<path id="XMLID_00000149384130640646831230000004682038110790140818_" class="st2" d="M566.9,310.3l-59.1-40.4l-56,0.2v0
		c-5.5-0.5-10.1-0.3-12.7,1l-99.9,66.1c-8.9,4.4-12.5,15.3-8.1,24.2h0c4.4,8.9,15.3,12.5,24.2,8.1l96.5-43.2L582,448.1l82.8-21.1
		V277.1L566.9,310.3z"/>
	<path id="XMLID_00000008122960439025969200000005043517067504285113_" class="st2" d="M345.9,534.6L329,548.2
		c-8.3,6.7-9.7,19-3,27.3c6.7,8.3,19,9.7,27.3,3l16.8-13.6c8.3-6.7,9.7-19,3-27.3C366.5,529.3,354.2,527.9,345.9,534.6z"/>
	<path id="XMLID_00000115513559266387502430000015117599649999850902_" class="st2" d="M339.2,504.9c-6.7-8.3-19-9.7-27.3-3
		L295,515.5c-8.3,6.7-9.7,19-3,27.3c6.7,8.3,19,9.7,27.3,3l16.8-13.6C344.6,525.6,345.9,513.2,339.2,504.9z"/>
	<path id="XMLID_00000179641409260709254570000003321898336334997436_" class="st2" d="M307,472.5c-6.7-8.3-19-9.7-27.3-3
		l-16.8,13.6c-8.3,6.7-9.7,19-3,27.3c6.7,8.3,19,9.7,27.3,3l16.8-13.6C312.4,493.1,313.7,480.8,307,472.5z"/>
	<path id="XMLID_00000029005834731908090030000016120883328203568267_" class="st2" d="M271,440.1c-6.7-8.3-19-9.7-27.3-3
		l-16.8,13.6c-8.3,6.7-9.7,19-3,27.3c6.7,8.3,19,9.7,27.3,3l16.8-13.6C276.4,460.7,277.7,448.4,271,440.1z"/>
	<path id="XMLID_00000109028200338440712920000001122056808384049060_" class="st2" d="M330.4,498.8c0.1,0,0.3,0.1,0.4,0.2
		C330.7,498.9,330.5,498.8,330.4,498.8C330.4,498.8,330.4,498.8,330.4,498.8z"/>
	<path id="XMLID_00000180358122794043778320000009981572333087007408_" class="st2" d="M514.8,419.4c-0.9-0.8-1.8-1.5-2.8-2.1
		l-62.3-59.9l-2.2-3.1L365.4,391c-5.6,2.7-11.8,4.1-18.1,4.1c-16,0-30.3-8.9-37.4-23.1c-5-10-5.8-21.3-2.2-31.9
		c3.4-10,10.2-18.3,19.4-23.3l63-41.7l-4.8-6.6h-56.1l-90.8,41.8L142,278.6V427l56.2,21.1l3.1,1.8c2.6-6.2,6.7-11.7,12.1-16
		l16.8-13.6c7.3-5.8,16.4-9,25.7-9c12.5,0,24.2,5.6,32,15.3c4.1,5.1,6.9,11.1,8.2,17.3c10.9,1.1,20.9,6.4,27.8,15.1
		c4.3,5.3,7.1,11.4,8.3,17.9c9.3,1.9,17.8,6.9,23.8,14.5c4.3,5.3,7.1,11.4,8.3,17.9c10.1,1.5,19.2,6.7,25.7,14.8
		c6.9,8.5,10,19.2,8.8,30.2c-0.2,2-0.6,3.9-1.1,5.8l11.2,10.7c5.8,5.6,15.2,5.3,20.7-0.5l4.1-4.3c5.6-5.8,5.3-15.2-0.5-20.7
		l-22.8-21.7l9.6-7.7l30.9,29.5c5.8,5.6,15.2,5.3,20.7-0.5l4.1-4.3c5.6-5.8,5.3-15.2-0.5-20.7l-27.5-26.2l12.8-10.3l36.5,34.8
		c5.8,5.6,15.2,5.3,20.7-0.5l4.1-4.3c5.6-5.8,5.3-15.2-0.5-20.7l-33.1-31.5l10.3-8.3l42.5,40.5c5.8,5.6,15.2,5.3,20.7-0.5l4.1-4.3
		c5.6-5.8,5.3-15.2-0.5-20.7L514.8,419.4z"/>
	<path id="XMLID_00000035522798810926351900000009748273910252036257_" class="st2" d="M362.7,530.9c0,0,0.1,0,0.1,0
		C362.7,531,362.7,531,362.7,530.9L362.7,530.9z"/>
</g>
</svg>
