<?xml version="1.0" encoding="utf-8"?>
<!-- Generator: Adobe Illustrator 26.0.1, SVG Export Plug-In . SVG Version: 6.00 Build 0)  -->
<svg version="1.1" id="Ebene_1" xmlns="http://www.w3.org/2000/svg" xmlns:xlink="http://www.w3.org/1999/xlink" x="0px" y="0px"
	 viewBox="0 0 800 800" style="enable-background:new 0 0 800 800;" xml:space="preserve">
<style type="text/css">
	.st0{fill:#F48D02;}
	.st1{fill:#E56700;}
	.st2{fill:#FFFFFF;}
</style>
<circle class="st0" cx="399.5" cy="400" r="400"/>
<path class="st1" d="M799.5,400c0-5-0.1-10-0.3-15L535.1,198l-270.6,7.5c0.1,1.4-7.3,379.9-7.2,381.2l149,213.3
	C624.1,796.2,799.5,618.6,799.5,400z"/>
<path id="Internet_00000103264998343361642070000013595234012009024136_" class="st2" d="M396.2,160.8
	c-133.9,0-138.9,37.2-138.9,37.2v388.7c0,0,39.7,29.8,138.9,29.8c99.2,0,138.9-29.8,138.9-29.8V198
	C535.1,198,530.2,160.8,396.2,160.8z M341.8,535.9h-40.3c-5.4,0-9.8-4.4-9.8-9.8c0-5.4,4.4-9.8,9.8-9.8h40.3c5.4,0,9.8,4.4,9.8,9.8
	C351.6,531.5,347.2,535.9,341.8,535.9z M341.8,496.8h-40.3c-5.4,0-9.8-4.4-9.8-9.8c0-5.4,4.4-9.8,9.8-9.8h40.3
	c5.4,0,9.8,4.4,9.8,9.8C351.6,492.4,347.2,496.8,341.8,496.8z M341.8,455.8h-40.3c-5.4,0-9.8-4.4-9.8-9.8c0-5.4,4.4-9.8,9.8-9.8
	h40.3c5.4,0,9.8,4.4,9.8,9.8C351.6,451.4,347.2,455.8,341.8,455.8z M416.8,535.9h-40.3c-5.4,0-9.8-4.4-9.8-9.8
	c0-5.4,4.4-9.8,9.8-9.8h40.3c5.4,0,9.8,4.4,9.8,9.8C426.6,531.5,422.2,535.9,416.8,535.9z M416.8,496.8h-40.3
	c-5.4,0-9.8-4.4-9.8-9.8c0-5.4,4.4-9.8,9.8-9.8h40.3c5.4,0,9.8,4.4,9.8,9.8C426.6,492.4,422.2,496.8,416.8,496.8z M416.8,455.8
	h-40.3c-5.4,0-9.8-4.4-9.8-9.8c0-5.4,4.4-9.8,9.8-9.8h40.3c5.4,0,9.8,4.4,9.8,9.8C426.6,451.4,422.2,455.8,416.8,455.8z
	 M490.2,535.9H450c-5.4,0-9.8-4.4-9.8-9.8c0-5.4,4.4-9.8,9.8-9.8h40.3c5.4,0,9.8,4.4,9.8,9.8C500,531.5,495.6,535.9,490.2,535.9z
	 M490.2,496.8H450c-5.4,0-9.8-4.4-9.8-9.8c0-5.4,4.4-9.8,9.8-9.8h40.3c5.4,0,9.8,4.4,9.8,9.8C500,492.4,495.6,496.8,490.2,496.8z
	 M490.2,455.8H450c-5.4,0-9.8-4.4-9.8-9.8c0-5.4,4.4-9.8,9.8-9.8h40.3c5.4,0,9.8,4.4,9.8,9.8C500,451.4,495.6,455.8,490.2,455.8z
	 M500.4,400.9H292.1V217.6h208.3V400.9z"/>
</svg>
