<?xml version="1.0" encoding="utf-8"?>
<!-- Generator: Adobe Illustrator 26.0.1, SVG Export Plug-In . SVG Version: 6.00 Build 0)  -->
<svg version="1.1" id="Ebene_1" xmlns="http://www.w3.org/2000/svg" xmlns:xlink="http://www.w3.org/1999/xlink" x="0px" y="0px"
	 viewBox="0 0 800 800" style="enable-background:new 0 0 800 800;" xml:space="preserve">
<style type="text/css">
	.st0{fill:#F48D02;}
	.st1{fill:#E56700;}
	.st2{fill:#FFFFFF;}
</style>
<circle class="st0" cx="400.8" cy="401" r="399.2"/>
<path class="st1" d="M799.9,410.3l-225-157.9l-61.5,43.3l-78.2-77.2L360,330.7l-84.2-78.2l-28.1,53.1
	C156.4,405.9,135,468.9,135.1,470.2L441.8,798C640,777.8,795.3,612.7,799.9,410.3z"/>
<g>
	<path class="st2" d="M553.8,364.4c25.1,0,52.5-34.6,52.5-68.5s-27.5-48.8-52.5-48.8c-25.1,0-50.7,16.7-50.7,50.6
		S528.8,364.4,553.8,364.4z"/>
	<path class="st2" d="M668.7,454.1c0-37.5-25.5-69.9-62.6-85.8c-1.2-0.5-3.7-1.5-3.7-1.5l-47.7,54.4l-46-55.1c0,0-3.3,1.3-4.9,1.9
		c-11.6,4.9-37.2,16.6-37.2,16.6l-70,79.9L345.1,403c-3.3-4.8-7-9.3-11.3-13.5l-4.7-5.7c0,0-0.5,0.2-1.2,0.5
		c-8.6-7.4-18.5-13.7-29.5-18.4c-1.2-0.5-3.7-1.5-3.7-1.5L247,418.8l-46-55.1c0,0-3.3,1.3-4.9,1.9c-37.4,15.8-63.1,48.4-63.1,86
		c0,6.3,0.7,12.5,2.1,18.5c25.6,11.8,59.3,19.2,96.4,20.8c-1.3,7.1-2.1,14.4-2.1,21.8c0,9.3,1.1,18.3,3.1,27.1
		c42.4,19.6,99.5,31.6,162.4,31.6c64.8,0,123.6-12.8,166.3-33.4c1.8-8.2,2.7-16.6,2.7-25.2c0-6.5-0.6-12.9-1.6-19.1
		c40.6-1.1,77.5-9.2,104.6-22.4C668.1,465.8,668.7,460,668.7,454.1z"/>
	<path class="st2" d="M246.1,362c25.1,0,52.5-34.6,52.5-68.5s-27.5-48.8-52.5-48.8c-25.1,0-50.7,16.7-50.7,50.6
		C195.4,329.1,221,362,246.1,362z"/>
	<path class="st2" d="M395.3,381.2c36.8,0,77.1-50.8,77.1-100.4c0-49.7-40.3-71.5-77.1-71.5s-74.4,24.5-74.4,74.2
		C320.9,333.1,358.6,381.2,395.3,381.2z"/>
</g>
</svg>
